<svg xmlns="http://www.w3.org/2000/svg" xmlns:xlink="http://www.w3.org/1999/xlink" style="enable-background:new 0 0 48 48" id="Layer_1" x="0" y="0" version="1.1" viewBox="0 0 48 48" xml:space="preserve"><style type="text/css"/><g><g><g><defs><path id="SVGID_00000098223067698444542490000005308564389104993442_" d="M0,10c16-5.6,32,5.6,48,0c0,9.3,0,18.7,0,28 c-16,5.6-32-5.6-48,0C0,28.7,0,19.3,0,10z"/></defs><clipPath id="SVGID_00000008836008439689966040000010491373022989920917_"><use style="overflow:visible" xlink:href="#SVGID_00000098223067698444542490000005308564389104993442_"/></clipPath><g style="clip-path:url(#SVGID_00000008836008439689966040000010491373022989920917_)"><defs><path id="SVGID_00000090981237090556451670000017832891679112243364_" d="M0,10c16-5.6,32,5.6,48,0c0,9.3,0,18.7,0,28 c-16,5.6-32-5.6-48,0C0,28.7,0,19.3,0,10z"/></defs><clipPath id="SVGID_00000047040224910425864000000006904586390061952173_"><use style="overflow:visible" xlink:href="#SVGID_00000090981237090556451670000017832891679112243364_"/></clipPath></g></g></g><g><g><defs><path id="SVGID_00000095297417741043009110000003328831280886778275_" d="M0,10c16-5.6,32,5.6,48,0c0,9.3,0,18.7,0,28 c-16,5.6-32-5.6-48,0C0,28.7,0,19.3,0,10z"/></defs><clipPath id="SVGID_00000161609715187339020020000014971207078457862846_"><use style="overflow:visible" xlink:href="#SVGID_00000095297417741043009110000003328831280886778275_"/></clipPath><path d="M0,38c16-5.6,32,5.6,48,0c0-9.3,0-18.7,0-28c-16,5.6-32-5.6-48,0C0,19.3,0,28.7,0,38z" style="clip-path:url(#SVGID_00000161609715187339020020000014971207078457862846_);fill:#fff;stroke:#000;stroke-width:.25;stroke-miterlimit:10"/><path d="M31.8,15.8c0.6,1,1.2,1.9,1.8,2.9c-0.3,0.2-0.6,0.4-1,0.6c-0.6-1-1.2-1.9-1.8-2.9C31.1,16.2,31.4,16,31.8,15.8z" style="clip-path:url(#SVGID_00000161609715187339020020000014971207078457862846_);fill:#020203;stroke:#000;stroke-width:.25;stroke-miterlimit:10"/><path d="M33.9,19.2c0.6,0.9,1.2,1.9,1.8,2.8c-0.3,0.2-0.6,0.4-1,0.6c-0.6-0.9-1.2-1.9-1.8-2.8C33.2,19.6,33.5,19.4,33.9,19.2z" style="clip-path:url(#SVGID_00000161609715187339020020000014971207078457862846_);fill:#020203;stroke:#000;stroke-width:.25;stroke-miterlimit:10"/><path d="M33.2,15c1.3,2.1,2.6,4.1,3.9,6.1c-0.3,0.2-0.6,0.4-1,0.6c-1.3-2-2.6-4-3.9-6.1C32.6,15.4,32.9,15.2,33.2,15z" style="clip-path:url(#SVGID_00000161609715187339020020000014971207078457862846_);fill:#020203;stroke:#000;stroke-width:.25;stroke-miterlimit:10"/><path d="M34.7,14.2c0.6,0.9,1.2,1.9,1.8,2.8c-0.3,0.2-0.6,0.4-1,0.6c-0.6-0.9-1.2-1.9-1.8-2.8C34,14.6,34.4,14.4,34.7,14.2z" style="clip-path:url(#SVGID_00000161609715187339020020000014971207078457862846_);fill:#020203;stroke:#000;stroke-width:.25;stroke-miterlimit:10"/><path d="M36.8,17.4c0.6,0.9,1.2,1.8,1.8,2.7c-0.3,0.2-0.6,0.4-1,0.7C37,19.9,36.4,19,35.8,18C36.1,17.8,36.5,17.6,36.8,17.4z" style="clip-path:url(#SVGID_00000161609715187339020020000014971207078457862846_);fill:#020203;stroke:#000;stroke-width:.25;stroke-miterlimit:10"/><path d="M13.3,25.4c1.3,2,2.6,4.1,3.9,6.2c-0.3,0.2-0.6,0.3-1,0.5c-1.3-2.1-2.6-4.2-3.9-6.2C12.7,25.8,13,25.6,13.3,25.4z" style="clip-path:url(#SVGID_00000161609715187339020020000014971207078457862846_);fill:#020203;stroke:#000;stroke-width:.25;stroke-miterlimit:10"/><path d="M11.9,26.3c0.6,0.9,1.2,1.8,1.8,2.8c-0.3,0.2-0.6,0.4-1,0.6c-0.6-0.9-1.2-1.8-1.8-2.7C11.2,26.7,11.5,26.5,11.9,26.3z" style="clip-path:url(#SVGID_00000161609715187339020020000014971207078457862846_);fill:#020203;stroke:#000;stroke-width:.25;stroke-miterlimit:10"/><path d="M14,29.6c0.6,0.9,1.2,1.9,1.8,2.8c-0.3,0.2-0.6,0.4-1,0.5c-0.6-0.9-1.2-1.9-1.8-2.8C13.3,30,13.6,29.8,14,29.6z" style="clip-path:url(#SVGID_00000161609715187339020020000014971207078457862846_);fill:#020203;stroke:#000;stroke-width:.25;stroke-miterlimit:10"/><path d="M10.4,27.2c1.3,2,2.6,4,3.9,6c-0.3,0.2-0.6,0.4-1,0.6c-1.3-2-2.6-4-3.9-5.9C9.8,27.7,10.1,27.4,10.4,27.2z" style="clip-path:url(#SVGID_00000161609715187339020020000014971207078457862846_);fill:#020203;stroke:#000;stroke-width:.25;stroke-miterlimit:10"/><path d="M12.4,18.9c1.3-1.9,2.6-3.7,3.9-5.5c0.3,0.3,0.6,0.5,1,0.8c-1.3,1.8-2.6,3.6-3.9,5.4C13,19.3,12.7,19.1,12.4,18.9z" style="clip-path:url(#SVGID_00000161609715187339020020000014971207078457862846_);fill:#020203;stroke:#000;stroke-width:.25;stroke-miterlimit:10"/><path d="M10.9,17.9c1.3-1.9,2.6-3.8,3.9-5.6c0.3,0.2,0.6,0.5,1,0.7c-1.3,1.8-2.6,3.6-3.9,5.5C11.5,18.3,11.2,18.1,10.9,17.9z" style="clip-path:url(#SVGID_00000161609715187339020020000014971207078457862846_);fill:#020203;stroke:#000;stroke-width:.25;stroke-miterlimit:10"/><path d="M9.4,16.9c1.3-2,2.6-3.9,3.9-5.7c0.3,0.2,0.6,0.5,1,0.7c-1.3,1.8-2.6,3.7-3.9,5.6C10.1,17.3,9.8,17.1,9.4,16.9z" style="clip-path:url(#SVGID_00000161609715187339020020000014971207078457862846_);fill:#020203;stroke:#000;stroke-width:.25;stroke-miterlimit:10"/><path d="M30.8,33.8c0.6-0.8,1.2-1.6,1.8-2.5c0.3,0.3,0.6,0.5,1,0.7c-0.6,0.8-1.2,1.7-1.8,2.5C31.4,34.3,31.1,34.1,30.8,33.8z" style="clip-path:url(#SVGID_00000161609715187339020020000014971207078457862846_);fill:#020203;stroke:#000;stroke-width:.25;stroke-miterlimit:10"/><path d="M32.9,30.9c0.6-0.8,1.2-1.7,1.8-2.5c0.3,0.2,0.6,0.5,1,0.7c-0.6,0.9-1.2,1.7-1.8,2.5C33.5,31.4,33.2,31.2,32.9,30.9z" style="clip-path:url(#SVGID_00000161609715187339020020000014971207078457862846_);fill:#020203;stroke:#000;stroke-width:.25;stroke-miterlimit:10"/><path d="M32.3,35c0.6-0.8,1.2-1.7,1.8-2.5c0.3,0.2,0.6,0.5,1,0.7c-0.6,0.9-1.2,1.7-1.8,2.5C32.9,35.5,32.6,35.2,32.3,35z" style="clip-path:url(#SVGID_00000161609715187339020020000014971207078457862846_);fill:#020203;stroke:#000;stroke-width:.25;stroke-miterlimit:10"/><path d="M34.4,32c0.6-0.8,1.2-1.7,1.8-2.6c0.3,0.2,0.6,0.5,1,0.7c-0.6,0.9-1.2,1.7-1.8,2.6C35,32.5,34.7,32.3,34.4,32z" style="clip-path:url(#SVGID_00000161609715187339020020000014971207078457862846_);fill:#020203;stroke:#000;stroke-width:.25;stroke-miterlimit:10"/><path d="M33.7,36.1c0.6-0.8,1.2-1.7,1.8-2.5c0.3,0.2,0.6,0.5,1,0.7c-0.6,0.9-1.2,1.7-1.8,2.6C34.4,36.6,34,36.3,33.7,36.1z" style="clip-path:url(#SVGID_00000161609715187339020020000014971207078457862846_);fill:#020203;stroke:#000;stroke-width:.25;stroke-miterlimit:10"/><path d="M35.8,33.1c0.6-0.9,1.2-1.7,1.8-2.6c0.3,0.2,0.6,0.4,1,0.6c-0.6,0.9-1.2,1.8-1.8,2.7C36.5,33.5,36.1,33.3,35.8,33.1z" style="clip-path:url(#SVGID_00000161609715187339020020000014971207078457862846_);fill:#020203;stroke:#000;stroke-width:.25;stroke-miterlimit:10"/><g style="clip-path:url(#SVGID_00000161609715187339020020000014971207078457862846_)"><defs><path id="SVGID_00000070101256282364725330000015084193582535930760_" d="M0,10c16-5.6,32,5.6,48,0c0,9.3,0,18.7,0,28 c-16,5.6-32-5.6-48,0C0,28.7,0,19.3,0,10z"/></defs><clipPath id="SVGID_00000148632255460243709330000004602297197689952659_"><use style="overflow:visible" xlink:href="#SVGID_00000070101256282364725330000015084193582535930760_"/></clipPath><path d="M18.2,19.2c0,0-0.1,0.1-0.1,0.1C18.1,19.2,18.2,19.2,18.2,19.2" style="clip-path:url(#SVGID_00000148632255460243709330000004602297197689952659_);fill:#b6163b;stroke:#000;stroke-width:.25;stroke-miterlimit:10"/><path d="M27.9,18.8c-3.2-2.7-7.6-2.6-9.7,0.3c-1.1,1.5-0.6,3.7,1,5c1.6,1.3,3.8,1.3,4.9-0.2c1.1-1.4,3.2-1.5,4.9-0.2c1.6,1.3,2,3.5,1,5 C32,25.9,31.1,21.5,27.9,18.8" style="clip-path:url(#SVGID_00000148632255460243709330000004602297197689952659_);fill:#b6163b;stroke:#000;stroke-width:.25;stroke-miterlimit:10"/><path d="M18.2,19.2c-1.1,1.5-0.6,3.7,1,5c1.6,1.3,3.8,1.3,4.9-0.2c1.1-1.4,3.2-1.5,4.9-0.2c1.6,1.3,2,3.5,1,5c-2.1,2.9-6.5,3-9.7,0.3 C16.9,26.5,16,22.1,18.2,19.2" style="clip-path:url(#SVGID_00000148632255460243709330000004602297197689952659_);fill:#243672;stroke:#000;stroke-width:.25;stroke-miterlimit:10"/><use style="overflow:visible;fill:none;stroke:#000;stroke-width:.25;stroke-miterlimit:10" xlink:href="#SVGID_00000070101256282364725330000015084193582535930760_"/></g><use style="overflow:visible;fill:none;stroke:#000;stroke-width:.25;stroke-miterlimit:10" xlink:href="#SVGID_00000095297417741043009110000003328831280886778275_"/></g></g><g><g><defs><path id="SVGID_00000144326221827118887230000003674336238646651321_" d="M0,10c16-5.6,32,5.6,48,0c0,9.3,0,18.7,0,28 c-16,5.6-32-5.6-48,0C0,28.7,0,19.3,0,10z"/></defs><clipPath id="SVGID_00000088120627170709672850000016244053036286544020_"><use style="overflow:visible" xlink:href="#SVGID_00000144326221827118887230000003674336238646651321_"/></clipPath><g style="clip-path:url(#SVGID_00000088120627170709672850000016244053036286544020_)"><defs><path id="SVGID_00000076575532293031788020000012997217792287626161_" d="M0,10c16-5.6,32,5.6,48,0c0,9.3,0,18.7,0,28 c-16,5.6-32-5.6-48,0C0,28.7,0,19.3,0,10z"/></defs><clipPath id="SVGID_00000160893816241847502490000001671445522778714767_"><use style="overflow:visible" xlink:href="#SVGID_00000076575532293031788020000012997217792287626161_"/></clipPath></g></g></g></g></svg>