<svg xmlns="http://www.w3.org/2000/svg" xmlns:xlink="http://www.w3.org/1999/xlink" style="enable-background:new 0 0 48 48" id="Layer_1" x="0" y="0" version="1.1" viewBox="0 0 48 48" xml:space="preserve"><style type="text/css"/><g><g><g><defs><path id="SVGID_00000043434062845083686830000003250882676748085409_" d="M0,10c16-5.6,32,5.6,48,0c0,9.3,0,18.7,0,28 c-16,5.6-32-5.6-48,0C0,28.7,0,19.3,0,10z"/></defs><clipPath id="SVGID_00000056397473255433069850000006532953564414557059_"><use style="overflow:visible" xlink:href="#SVGID_00000043434062845083686830000003250882676748085409_"/></clipPath></g></g><g><g><defs><path id="SVGID_00000004517656071746789860000017729058616013911988_" d="M0,10c16-5.6,32,5.6,48,0c0,9.3,0,18.7,0,28 c-16,5.6-32-5.6-48,0C0,28.7,0,19.3,0,10z"/></defs><clipPath id="SVGID_00000119817425168403007390000008423388579308953268_"><use style="overflow:visible" xlink:href="#SVGID_00000004517656071746789860000017729058616013911988_"/></clipPath><path d="M0,38 c16-5.6,32,5.6,48,0c0-9.3,0-18.7,0-28c-16,5.6-32-5.6-48,0C0,19.3,0,28.7,0,38z" style="clip-path:url(#SVGID_00000119817425168403007390000008423388579308953268_);fill:#fff"/><path d="M32.1,21.4 C37.4,19,42.7,16.1,48,11.2c0-0.4,0-0.8,0-1.2c-0.4,0.1-0.7,0.2-1.1,0.4c-6,5.2-12.1,8.1-18.1,10.6C29.9,21.1,31,21.3,32.1,21.4z" style="clip-path:url(#SVGID_00000119817425168403007390000008423388579308953268_);fill:#be1637"/><path d="M31.4,29.6 c5.5,3.8,11.1,7,16.6,8.1c0-0.6,0-1.2,0-1.9c-4.4-0.9-8.9-3.1-13.3-5.9C33.6,29.9,32.5,29.7,31.4,29.6z" style="clip-path:url(#SVGID_00000119817425168403007390000008423388579308953268_);fill:#be1637"/><path d="M0,12.1 c4.7,1,9.5,3.5,14.2,6.6c1.1,0.1,2.2,0.2,3.3,0.4C11.7,15,5.8,11.5,0,10.3C0,10.9,0,11.5,0,12.1z" style="clip-path:url(#SVGID_00000119817425168403007390000008423388579308953268_);fill:#be1637"/><path d="M16.8,27.3 C11.2,29.7,5.6,32.7,0,37.8c0,0.1,0,0.1,0,0.2c1-0.4,2-0.6,3-0.9c5.7-4.5,11.4-7.1,17.1-9.4C19,27.6,17.9,27.4,16.8,27.3z" style="clip-path:url(#SVGID_00000119817425168403007390000008423388579308953268_);fill:#be1637"/><path d="M44.7,10.9 c-5.6,1.2-11.2,0.6-16.8-0.3c0,3.1,0,6.3,0,9.4C33.5,17.8,39.1,15.3,44.7,10.9z" style="clip-path:url(#SVGID_00000119817425168403007390000008423388579308953268_);fill:#293270"/><path d="M20.5,9.4 C14.9,8.5,9.3,7.9,3.7,9c5.6,2,11.2,5.8,16.7,9.8C20.5,15.7,20.5,12.5,20.5,9.4z" style="clip-path:url(#SVGID_00000119817425168403007390000008423388579308953268_);fill:#293270"/><path d="M48,20.1 c0-2.1,0-4.3,0-6.4c-3.8,3.5-7.6,6-11.4,8C40.4,21.8,44.2,21.5,48,20.1z" style="clip-path:url(#SVGID_00000119817425168403007390000008423388579308953268_);fill:#293270"/><path d="M48,34.8 c0-2.1,0-4.2,0-6.4c-3.8,1.3-7.6,1.7-11.4,1.6C40.4,32.3,44.2,34,48,34.8z" style="clip-path:url(#SVGID_00000119817425168403007390000008423388579308953268_);fill:#293270"/><path d="M4.7,36.8 c5.3-0.9,10.5-0.3,15.8,0.6c0-2.9,0-5.9,0-8.8C15.2,30.6,10,33,4.7,36.8z" style="clip-path:url(#SVGID_00000119817425168403007390000008423388579308953268_);fill:#293270"/><path d="M27.9,38.7 c5.3,0.9,10.6,1.4,15.8,0.4c-5.3-2-10.6-5.5-15.8-9.3C27.9,32.8,27.9,35.7,27.9,38.7z" style="clip-path:url(#SVGID_00000119817425168403007390000008423388579308953268_);fill:#293270"/><path d="M0,28.4 c0,2.2,0,4.4,0,6.6c3.9-3.6,7.9-6.2,11.8-8.2C7.9,26.7,3.9,27.1,0,28.4z" style="clip-path:url(#SVGID_00000119817425168403007390000008423388579308953268_);fill:#293270"/><path d="M0,20.1 c3.9-1.4,7.9-1.7,11.8-1.6C7.9,16.2,3.9,14.3,0,13.5C0,15.7,0,17.9,0,20.1z" style="clip-path:url(#SVGID_00000119817425168403007390000008423388579308953268_);fill:#293270"/><path d="M22,9.6 c0,3.9,0,7.9,0,11.8c-7.3-1.3-14.6-2.2-22,0.4c0,1.7,0,3.3,0,5c7.3-2.6,14.6-1.6,22-0.4c0,3.7,0,7.5,0,11.2 c1.5,0.3,3,0.5,4.5,0.8c0-3.7,0-7.5,0-11.2c7.2,1.2,14.4,2.1,21.6-0.4c0-1.7,0-3.3,0-5c-7.2,2.5-14.4,1.6-21.6,0.4 c0-3.9,0-7.9,0-11.8C24.9,10.2,23.5,9.9,22,9.6z" style="clip-path:url(#SVGID_00000119817425168403007390000008423388579308953268_);fill:#be1637"/></g></g><g><g><defs><path id="SVGID_00000174583928103316392570000015217263870423857031_" d="M0,10c16-5.6,32,5.6,48,0c0,9.3,0,18.7,0,28 c-16,5.6-32-5.6-48,0C0,28.7,0,19.3,0,10z"/></defs><clipPath id="SVGID_00000070104133757087796170000013661466116437320320_"><use style="overflow:visible" xlink:href="#SVGID_00000174583928103316392570000015217263870423857031_"/></clipPath></g></g></g></svg>