<svg xmlns="http://www.w3.org/2000/svg" xmlns:xlink="http://www.w3.org/1999/xlink" style="enable-background:new 0 0 48 48" id="Layer_1" x="0" y="0" version="1.1" viewBox="0 0 48 48" xml:space="preserve"><style type="text/css"/><g><g><g><defs><path id="SVGID_00000049943841352244391880000014740341567087786401_" d="M0,10c16-5.6,32,5.6,48,0c0,9.3,0,18.7,0,28 c-16,5.6-32-5.6-48,0C0,28.7,0,19.3,0,10z"/></defs><clipPath id="SVGID_00000083064112735927481250000000401450075342750352_"><use style="overflow:visible" xlink:href="#SVGID_00000049943841352244391880000014740341567087786401_"/></clipPath><g style="clip-path:url(#SVGID_00000083064112735927481250000000401450075342750352_)"><defs><path id="SVGID_00000037689558708012360300000000112130899550686884_" d="M0,10c16-5.6,32,5.6,48,0c0,9.3,0,18.7,0,28 c-16,5.6-32-5.6-48,0C0,28.7,0,19.3,0,10z"/></defs><clipPath id="SVGID_00000063592238399811421070000006264902027420136876_"><use style="overflow:visible" xlink:href="#SVGID_00000037689558708012360300000000112130899550686884_"/></clipPath></g></g></g><g><g><defs><path id="SVGID_00000175303980201732725170000006714968019013323444_" d="M0,10c16-5.6,32,5.6,48,0c0,9.3,0,18.7,0,28 c-16,5.6-32-5.6-48,0C0,28.7,0,19.3,0,10z"/></defs><clipPath id="SVGID_00000142876753518572075930000003873171214269503645_"><use style="overflow:visible" xlink:href="#SVGID_00000175303980201732725170000006714968019013323444_"/></clipPath><path d="M0,38 c16-5.6,32,5.6,48,0c0-9.3,0-18.7,0-28c-16,5.6-32-5.6-48,0C0,19.3,0,28.7,0,38z" style="clip-path:url(#SVGID_00000142876753518572075930000003873171214269503645_);fill:#d0122a"/><g style="clip-path:url(#SVGID_00000142876753518572075930000003873171214269503645_)"><defs><path id="SVGID_00000018922851616007373940000016255510473101158076_" d="M0,10c16-5.6,32,5.6,48,0c0,9.3,0,18.7,0,28 c-16,5.6-32-5.6-48,0C0,28.7,0,19.3,0,10z"/></defs><clipPath id="SVGID_00000162322551781234623010000011294144117771273123_"><use style="overflow:visible" xlink:href="#SVGID_00000018922851616007373940000016255510473101158076_"/></clipPath><path d="M14,15.6 c3.9,0.3,7,4.1,7,7.9c0,3.9-3.1,6.4-7,6.1c-3.9-0.4-7-3.2-7-7C7,18.6,10.1,15.2,14,15.6" style="clip-path:url(#SVGID_00000162322551781234623010000011294144117771273123_);fill:#fff"/><path d="M15.7,17.1 c3.1,0.4,5.6,3.3,5.6,6.4c0,3.1-2.5,5.1-5.6,4.8c-3.1-0.4-5.6-2.9-5.6-5.9C10.1,19.3,12.7,16.8,15.7,17.1" style="clip-path:url(#SVGID_00000162322551781234623010000011294144117771273123_);fill:#d0122a"/><path d="M19.9,23.3 c1.1,0.5,2.2,1.1,3.3,1.6c0.2-0.5,0.4-1,0.5-1.6C22.5,23.3,21.2,23.3,19.9,23.3z" style="clip-path:url(#SVGID_00000162322551781234623010000011294144117771273123_);fill:#fff"/><path d="M19.9,23.3 c1.1-0.2,2.2-0.4,3.3-0.5c0.2,0.6,0.4,1.2,0.5,1.8C22.5,24.1,21.2,23.7,19.9,23.3z" style="clip-path:url(#SVGID_00000162322551781234623010000011294144117771273123_);fill:#fff"/><path d="M22.3,20.4 c0,1.2,0,2.3,0,3.5c0.6,0.1,1.2,0.2,1.8,0.3C23.5,22.9,22.9,21.6,22.3,20.4z" style="clip-path:url(#SVGID_00000162322551781234623010000011294144117771273123_);fill:#fff"/><path d="M22.3,20.4 c0.7,1.1,1.4,2.1,2.1,3.2c-0.5,0.3-0.9,0.5-1.4,0.8C22.8,23,22.5,21.7,22.3,20.4z" style="clip-path:url(#SVGID_00000162322551781234623010000011294144117771273123_);fill:#fff"/><path d="M22.3,27 c0.7-0.8,1.4-1.6,2.1-2.5c-0.5-0.4-0.9-0.9-1.4-1.3C22.8,24.5,22.5,25.8,22.3,27z" style="clip-path:url(#SVGID_00000162322551781234623010000011294144117771273123_);fill:#fff"/><path d="M22.3,27 c0-1.2,0-2.3,0-3.5c0.6,0.1,1.2,0.2,1.8,0.3C23.5,24.9,22.9,26,22.3,27z" style="clip-path:url(#SVGID_00000162322551781234623010000011294144117771273123_);fill:#fff"/><path d="M26.2,22.3 c-1.1,0.2-2.2,0.3-3.3,0.5c0.2,0.6,0.4,1.2,0.5,1.8C24.4,23.8,25.3,23.1,26.2,22.3z" style="clip-path:url(#SVGID_00000162322551781234623010000011294144117771273123_);fill:#fff"/><path d="M26.2,22.3 c-0.7,0.8-1.4,1.7-2.1,2.5c-0.5-0.4-0.9-0.9-1.4-1.3C23.9,23.1,25.1,22.7,26.2,22.3z" style="clip-path:url(#SVGID_00000162322551781234623010000011294144117771273123_);fill:#fff"/><path d="M26.2,26.4 c-0.7-1.1-1.4-2.1-2.1-3.2c-0.5,0.3-0.9,0.5-1.4,0.8C23.9,24.8,25.1,25.6,26.2,26.4z" style="clip-path:url(#SVGID_00000162322551781234623010000011294144117771273123_);fill:#fff"/><path d="M26.2,26.4 c-1.1-0.5-2.2-1.1-3.3-1.7c0.2-0.5,0.4-1,0.5-1.6C24.4,24.3,25.3,25.4,26.2,26.4z" style="clip-path:url(#SVGID_00000162322551781234623010000011294144117771273123_);fill:#fff"/></g></g></g><g><g><defs><path id="SVGID_00000031209078678109409120000005903321648207942837_" d="M0,10c16-5.6,32,5.6,48,0c0,9.3,0,18.7,0,28 c-16,5.6-32-5.6-48,0C0,28.7,0,19.3,0,10z"/></defs><clipPath id="SVGID_00000159429073784417939990000012393374609898317475_"><use style="overflow:visible" xlink:href="#SVGID_00000031209078678109409120000005903321648207942837_"/></clipPath><g style="clip-path:url(#SVGID_00000159429073784417939990000012393374609898317475_)"><defs><path id="SVGID_00000038397932138585326780000008336338315092397234_" d="M0,10c16-5.6,32,5.6,48,0c0,9.3,0,18.7,0,28 c-16,5.6-32-5.6-48,0C0,28.7,0,19.3,0,10z"/></defs><clipPath id="SVGID_00000127035068749897730180000014442214929261100686_"><use style="overflow:visible" xlink:href="#SVGID_00000038397932138585326780000008336338315092397234_"/></clipPath></g></g></g></g></svg>