<svg xmlns="http://www.w3.org/2000/svg" xmlns:xlink="http://www.w3.org/1999/xlink" style="enable-background:new 0 0 48 48" id="Layer_1" x="0" y="0" version="1.1" viewBox="0 0 48 48" xml:space="preserve"><style type="text/css"/><g><g><g><defs><path id="SVGID_00000003826342799914663080000004316474963034044851_" d="M0,10c16-5.6,32,5.6,48,0c0,9.3,0,18.7,0,28 c-16,5.6-32-5.6-48,0C0,28.7,0,19.3,0,10z"/></defs><clipPath id="SVGID_00000059311638896180545060000013590457075366634135_"><use style="overflow:visible" xlink:href="#SVGID_00000003826342799914663080000004316474963034044851_"/></clipPath></g></g><g><g><defs><path id="SVGID_00000106837811878098370560000009628261304206365593_" d="M0,10c16-5.6,32,5.6,48,0c0,9.3,0,18.7,0,28 c-16,5.6-32-5.6-48,0C0,28.7,0,19.3,0,10z"/></defs><clipPath id="SVGID_00000027572891093521034330000010366359652711626122_"><use style="overflow:visible" xlink:href="#SVGID_00000106837811878098370560000009628261304206365593_"/></clipPath><path d="M0,38 c16-5.6,32,5.6,48,0c0-9.3,0-18.7,0-28c-16,5.6-32-5.6-48,0C0,19.3,0,28.7,0,38z" style="clip-path:url(#SVGID_00000027572891093521034330000010366359652711626122_);fill:#c9192c"/><path d="M27.4,26.6 c0.7,2.3,1.4,4.5,2.1,6.8c-1.8-1.6-3.7-3.2-5.5-4.9c-1.8,1-3.7,2-5.5,3.1c0.7-2,1.4-4.1,2.1-6.1c-1.8-1.6-3.7-3.2-5.5-4.7 c2.3,0.2,4.5,0.6,6.8,1c0.7-2,1.4-4.1,2.1-6.1c0.7,2.3,1.4,4.5,2.1,6.8c2.3,0.4,4.5,0.7,6.8,1C31,24.5,29.2,25.5,27.4,26.6z" style="clip-path:url(#SVGID_00000027572891093521034330000010366359652711626122_);fill:#f1e623"/></g></g><g><g><defs><path id="SVGID_00000140718947266835970000000002916792263568616889_" d="M0,10c16-5.6,32,5.6,48,0c0,9.3,0,18.7,0,28 c-16,5.6-32-5.6-48,0C0,28.7,0,19.3,0,10z"/></defs><clipPath id="SVGID_00000163046276790024718780000018419234977208345730_"><use style="overflow:visible" xlink:href="#SVGID_00000140718947266835970000000002916792263568616889_"/></clipPath></g></g></g></svg>