<svg xmlns="http://www.w3.org/2000/svg" xmlns:xlink="http://www.w3.org/1999/xlink" style="enable-background:new 0 0 48 48" id="Layer_1" x="0" y="0" version="1.1" viewBox="0 0 48 48" xml:space="preserve"><style type="text/css"/><g><g><g><defs><path id="SVGID_00000183928774122700291040000003638286953693227673_" d="M0,10c16-5.6,32,5.6,48,0c0,9.3,0,18.7,0,28 c-16,5.6-32-5.6-48,0C0,28.7,0,19.3,0,10z"/></defs><clipPath id="SVGID_00000003819929993087499520000018396057837255251884_"><use style="overflow:visible" xlink:href="#SVGID_00000183928774122700291040000003638286953693227673_"/></clipPath></g></g><g><g><defs><path id="SVGID_00000037651685984138542390000017270602658071431841_" d="M0,10c16-5.6,32,5.6,48,0c0,9.3,0,18.7,0,28 c-16,5.6-32-5.6-48,0C0,28.7,0,19.3,0,10z"/></defs><clipPath id="SVGID_00000113314773718564580360000011293405604417979281_"><use style="overflow:visible" xlink:href="#SVGID_00000037651685984138542390000017270602658071431841_"/></clipPath><path d="M0,38 c16-5.6,32,5.6,48,0c0-9.3,0-18.7,0-28c-16,5.6-32-5.6-48,0C0,19.3,0,28.7,0,38z" style="clip-path:url(#SVGID_00000113314773718564580360000011293405604417979281_);fill:#cc2024"/><path d="M4.6,19 c0.3-1,0.6-2,0.9-2.9c-0.8-0.5-1.6-0.9-2.4-1.3c1-0.2,2-0.4,2.9-0.5c0.3-1,0.6-1.9,0.9-2.9c0.3,0.9,0.6,1.8,0.9,2.7 c1-0.1,2-0.1,2.9-0.1c-0.8,0.6-1.6,1.1-2.4,1.8c0.3,0.9,0.6,1.8,0.9,2.8C8.6,18,7.8,17.4,7,16.9C6.2,17.6,5.4,18.2,4.6,19z" style="clip-path:url(#SVGID_00000113314773718564580360000011293405604417979281_);fill:#f7de29"/><path d="M12.8,20.1 c0.3,0.2,0.7,0.3,1,0.5c0.2-0.3,0.5-0.5,0.7-0.8c0,0.4,0,0.7-0.1,1.1c0.3,0.2,0.7,0.3,1,0.5c-0.3,0-0.7,0.1-1,0.2 c0,0.4-0.1,0.7-0.1,1.1c-0.2-0.3-0.4-0.6-0.6-1c-0.3,0.1-0.7,0.1-1,0.2c0.2-0.3,0.5-0.5,0.7-0.8C13.2,20.7,13,20.4,12.8,20.1z" style="clip-path:url(#SVGID_00000113314773718564580360000011293405604417979281_);fill:#f7de29"/><path d="M18.2,15.3 c-0.4-0.1-0.7-0.2-1.1-0.3c-0.2,0.3-0.3,0.6-0.5,0.9c0-0.4-0.1-0.7-0.1-1.1c-0.4-0.1-0.7-0.2-1.1-0.3c0.3-0.1,0.6-0.2,1-0.4 c0-0.4-0.1-0.7-0.1-1.1c0.2,0.3,0.5,0.6,0.7,0.9c0.3-0.1,0.6-0.2,1-0.3c-0.2,0.3-0.3,0.6-0.5,0.9C17.7,14.7,17.9,15,18.2,15.3z" style="clip-path:url(#SVGID_00000113314773718564580360000011293405604417979281_);fill:#f7de29"/><path d="M15.9,19.8 c0.1-0.3,0.2-0.7,0.3-1c-0.3-0.2-0.6-0.5-0.9-0.7c0.4,0,0.7,0.1,1.1,0.1c0.1-0.3,0.2-0.6,0.3-1c0.1,0.4,0.2,0.7,0.3,1.1 c0.4,0,0.7,0.1,1.1,0.1c-0.3,0.2-0.6,0.3-0.9,0.5c0.1,0.4,0.2,0.7,0.3,1.1c-0.3-0.2-0.6-0.5-0.9-0.7 C16.5,19.5,16.2,19.6,15.9,19.8z" style="clip-path:url(#SVGID_00000113314773718564580360000011293405604417979281_);fill:#f7de29"/><path d="M12.9,10.2 c0.3,0.2,0.6,0.3,1,0.5c0.2-0.2,0.5-0.5,0.7-0.7c0,0.4-0.1,0.7-0.1,1c0.3,0.2,0.6,0.4,1,0.6c-0.3,0-0.7,0.1-1,0.1 c0,0.3-0.1,0.7-0.1,1c-0.2-0.3-0.3-0.7-0.5-1c-0.3,0-0.7,0.1-1,0.1c0.2-0.2,0.5-0.5,0.7-0.7C13.2,10.9,13,10.6,12.9,10.2z" style="clip-path:url(#SVGID_00000113314773718564580360000011293405604417979281_);fill:#f7de29"/></g></g><g><g><defs><path id="SVGID_00000025401712605634804230000016096364470535674301_" d="M0,10c16-5.6,32,5.6,48,0c0,9.3,0,18.7,0,28 c-16,5.6-32-5.6-48,0C0,28.7,0,19.3,0,10z"/></defs><clipPath id="SVGID_00000154420214160930355580000001074830001290529160_"><use style="overflow:visible" xlink:href="#SVGID_00000025401712605634804230000016096364470535674301_"/></clipPath></g></g></g></svg>